<svg width="29" height="29" viewBox="0 0 29 29" fill="none" xmlns="http://www.w3.org/2000/svg">
<g clip-path="url(#clip0_114_89)">
<path d="M27.905 11.9789L16.0762 11.9783C15.5539 11.9783 15.1305 12.4016 15.1305 12.924V16.7028C15.1305 17.225 15.5539 17.6484 16.0761 17.6484H22.7374C22.008 19.5414 20.6466 21.1267 18.9096 22.134L21.75 27.0509C26.3063 24.4158 29 19.7923 29 14.6166C29 13.8797 28.9457 13.3529 28.837 12.7597C28.7545 12.309 28.3632 11.9789 27.905 11.9789Z" fill="#167EE6"/>
<path d="M14.5 23.3261C11.2401 23.3261 8.39426 21.545 6.86581 18.9093L1.94907 21.7433C4.45117 26.0798 9.1384 29 14.5 29C17.1302 29 19.612 28.2918 21.75 27.0577V27.0509L18.9096 22.134C17.6104 22.8875 16.107 23.3261 14.5 23.3261Z" fill="#12B347"/>
<path d="M21.75 27.0577V27.0509L18.9096 22.134C17.6104 22.8875 16.1071 23.3261 14.5 23.3261V29C17.1302 29 19.6122 28.2918 21.75 27.0577Z" fill="#0F993E"/>
<path d="M5.67392 14.5C5.67392 12.8932 6.11243 11.3899 6.86581 10.0907L1.94906 7.25674C0.708121 9.38796 0 11.863 0 14.5C0 17.137 0.708121 19.612 1.94906 21.7433L6.86581 18.9093C6.11243 17.6101 5.67392 16.1068 5.67392 14.5Z" fill="#FFD500"/>
<path d="M14.5 5.67392C16.6258 5.67392 18.5784 6.42928 20.1036 7.68574C20.4798 7.99567 21.0267 7.9733 21.3714 7.62864L24.0488 4.95124C24.4398 4.56019 24.4119 3.9201 23.9942 3.55771C21.4389 1.34085 18.1141 0 14.5 0C9.1384 0 4.45117 2.92022 1.94907 7.25674L6.86581 10.0907C8.39426 7.45504 11.2401 5.67392 14.5 5.67392Z" fill="#FF4B26"/>
<path d="M20.1036 7.68574C20.4798 7.99567 21.0268 7.9733 21.3714 7.62864L24.0488 4.95124C24.4397 4.56019 24.4119 3.9201 23.9942 3.55771C21.4389 1.3408 18.1141 0 14.5 0V5.67392C16.6257 5.67392 18.5784 6.42928 20.1036 7.68574Z" fill="#D93F21"/>
</g>
<defs>
<clipPath id="clip0_114_89">
<rect width="29" height="29" fill="white"/>
</clipPath>
</defs>
</svg>
