<svg width="88" height="57" viewBox="0 0 88 57" fill="none" xmlns="http://www.w3.org/2000/svg">
<path d="M14.91 29.01H6.57L5.19 33H0.78L8.31 12.03H13.2L20.73 33H16.29L14.91 29.01ZM13.77 25.65L10.74 16.89L7.71 25.65H13.77ZM46.3746 12.06V33H42.1746V19.38L36.5646 33H33.3846L27.7446 19.38V33H23.5446V12.06H28.3146L34.9746 27.63L41.6346 12.06H46.3746ZM86.5636 12.06L78.8836 33H73.7836L66.1036 12.06H70.6036L76.3636 28.71L82.0936 12.06H86.5636Z" fill="#2C2C2C"/>
<path d="M51.367 28.26C53.287 26.66 54.817 25.33 55.957 24.27C57.097 23.19 58.047 22.07 58.807 20.91C59.567 19.75 59.947 18.61 59.947 17.49C59.947 16.47 59.707 15.67 59.227 15.09C58.747 14.51 58.007 14.22 57.007 14.22C56.007 14.22 55.237 14.56 54.697 15.24C54.157 15.9 53.877 16.81 53.857 17.97H49.777C49.857 15.57 50.567 13.75 51.907 12.51C53.267 11.27 54.987 10.65 57.067 10.65C59.347 10.65 61.097 11.26 62.317 12.48C63.537 13.68 64.147 15.27 64.147 17.25C64.147 18.81 63.727 20.3 62.887 21.72C62.047 23.14 61.087 24.38 60.007 25.44C58.927 26.48 57.517 27.74 55.777 29.22H64.627V32.7H49.807V29.58L51.367 28.26Z" fill="#F07E13"/>
<path d="M21.135 49.335H24.585V51H19.035V40.53H21.135V49.335ZM28.0198 42.225V44.85H31.5448V46.515H28.0198V49.29H31.9948V51H25.9198V40.515H31.9948V42.225H28.0198ZM40.3232 49.005H36.1532L35.4632 51H33.2582L37.0232 40.515H39.4682L43.2332 51H41.0132L40.3232 49.005ZM39.7532 47.325L38.2382 42.945L36.7232 47.325H39.7532ZM50.0405 51L47.7305 46.92H46.7405V51H44.6405V40.53H48.5705C49.3805 40.53 50.0705 40.675 50.6405 40.965C51.2105 41.245 51.6355 41.63 51.9155 42.12C52.2055 42.6 52.3505 43.14 52.3505 43.74C52.3505 44.43 52.1505 45.055 51.7505 45.615C51.3505 46.165 50.7555 46.545 49.9655 46.755L52.4705 51H50.0405ZM46.7405 45.345H48.4955C49.0655 45.345 49.4905 45.21 49.7705 44.94C50.0505 44.66 50.1905 44.275 50.1905 43.785C50.1905 43.305 50.0505 42.935 49.7705 42.675C49.4905 42.405 49.0655 42.27 48.4955 42.27H46.7405V45.345ZM63.2048 51H61.1048L56.3498 43.815V51H54.2498V40.515H56.3498L61.1048 47.715V40.515H63.2048V51Z" fill="#2C2C2C"/>
<path d="M66.2101 51.105C65.8301 51.105 65.5151 50.99 65.2651 50.76C65.0251 50.52 64.9051 50.225 64.9051 49.875C64.9051 49.525 65.0251 49.235 65.2651 49.005C65.5151 48.765 65.8301 48.645 66.2101 48.645C66.5801 48.645 66.8851 48.765 67.1251 49.005C67.3651 49.235 67.4851 49.525 67.4851 49.875C67.4851 50.225 67.3651 50.52 67.1251 50.76C66.8851 50.99 66.5801 51.105 66.2101 51.105Z" fill="#0FC3E8"/>
</svg>
